<svg xmlns="http://www.w3.org/2000/svg" xmlns:xlink="http://www.w3.org/1999/xlink" width="500" zoomAndPan="magnify" viewBox="0 0 375 374.999991" height="500" preserveAspectRatio="xMidYMid meet" version="1.2"><defs/><g id="80176c5aa9"><g style="fill:#ffffff;fill-opacity:1;"><g transform="translate(65.331108, 208.76289)"><path style="stroke:none" d="M 5.484375 -1.25 C 4.804688 -1.320312 3.953125 -1.703125 2.921875 -2.390625 C 1.890625 -3.023438 1.101562 -3.703125 0.5625 -4.421875 C -0.539062 -6.015625 -1.332031 -8.28125 -1.8125 -11.21875 C -2.289062 -14.207031 -2.34375 -17.570312 -1.96875 -21.3125 C -1.707031 -24.289062 -1.269531 -27.273438 -0.65625 -30.265625 C -0.09375 -33.234375 0.8125 -36.9375 2.0625 -41.375 C 2.664062 -43.375 3.128906 -45.070312 3.453125 -46.46875 C 3.828125 -47.882812 3.976562 -48.617188 3.90625 -48.671875 C 3.894531 -48.734375 3.644531 -48.414062 3.15625 -47.71875 C 2.65625 -47.03125 2.085938 -46.171875 1.453125 -45.140625 C 0.222656 -43.285156 -0.691406 -42.128906 -1.296875 -41.671875 C -1.960938 -41.265625 -2.648438 -41.332031 -3.359375 -41.875 C -4.273438 -42.65625 -4.546875 -43.597656 -4.171875 -44.703125 C -3.742188 -45.804688 -2.367188 -48.078125 -0.046875 -51.515625 C 2.054688 -54.492188 3.710938 -56.421875 4.921875 -57.296875 C 6.117188 -58.222656 7.320312 -58.382812 8.53125 -57.78125 C 9.71875 -57.238281 10.222656 -56.003906 10.046875 -54.078125 C 9.921875 -52.097656 9.019531 -48.179688 7.34375 -42.328125 C 5.820312 -36.929688 4.765625 -32.832031 4.171875 -30.03125 C 3.585938 -27.175781 3.15625 -24.347656 2.875 -21.546875 C 2.59375 -18.671875 2.523438 -16.234375 2.671875 -14.234375 C 2.742188 -12.273438 3.046875 -10.609375 3.578125 -9.234375 C 4.273438 -7.492188 5.109375 -6.488281 6.078125 -6.21875 C 7.109375 -5.957031 8.421875 -6.382812 10.015625 -7.5 C 12.765625 -9.414062 15.8125 -13.925781 19.15625 -21.03125 C 22.414062 -28.132812 26.09375 -38.054688 30.1875 -50.796875 C 31.601562 -55.203125 32.617188 -57.847656 33.234375 -58.734375 C 33.816406 -59.628906 34.613281 -59.789062 35.625 -59.21875 C 35.945312 -59.09375 36.257812 -58.863281 36.5625 -58.53125 C 36.84375 -58.28125 37.03125 -58.039062 37.125 -57.8125 C 37.164062 -57.5625 37.140625 -57 37.046875 -56.125 C 36.953125 -55.207031 36.78125 -54.203125 36.53125 -53.109375 C 36.019531 -50.566406 35.628906 -48.050781 35.359375 -45.5625 C 35.015625 -43.050781 34.847656 -40.628906 34.859375 -38.296875 C 34.753906 -34.046875 35.066406 -30.414062 35.796875 -27.40625 C 36.523438 -24.332031 37.59375 -22.453125 39 -21.765625 C 41.40625 -20.609375 44.054688 -21.859375 46.953125 -25.515625 C 49.921875 -29.128906 52.40625 -33.707031 54.40625 -39.25 C 55.53125 -42.1875 56.414062 -45.238281 57.0625 -48.40625 C 57.707031 -51.644531 58.003906 -54.734375 57.953125 -57.671875 C 57.921875 -61.710938 57.175781 -65.578125 55.71875 -69.265625 C 54.207031 -72.960938 52.132812 -76.128906 49.5 -78.765625 C 48.632812 -79.597656 48.125 -80.28125 47.96875 -80.8125 C 47.882812 -81.34375 48.035156 -81.921875 48.421875 -82.546875 C 48.828125 -83.097656 49.300781 -83.390625 49.84375 -83.421875 C 50.382812 -83.503906 50.960938 -83.378906 51.578125 -83.046875 C 52.785156 -82.328125 54.335938 -80.644531 56.234375 -78 C 57.992188 -75.476562 59.285156 -73.203125 60.109375 -71.171875 C 60.921875 -69.160156 61.617188 -66.515625 62.203125 -63.234375 C 62.691406 -60.242188 62.894531 -57.671875 62.8125 -55.515625 C 62.789062 -53.359375 62.425781 -50.691406 61.71875 -47.515625 C 59.988281 -39.191406 57.253906 -32.15625 53.515625 -26.40625 C 49.847656 -20.65625 45.988281 -17.421875 41.9375 -16.703125 C 40.625 -16.492188 39.550781 -16.507812 38.71875 -16.75 C 37.894531 -16.914062 36.929688 -17.367188 35.828125 -18.109375 C 34.492188 -19.078125 33.46875 -20.296875 32.75 -21.765625 C 32.007812 -23.242188 31.328125 -25.554688 30.703125 -28.703125 C 30.503906 -29.890625 30.15625 -31.671875 29.65625 -34.046875 C 29.226562 -32.878906 28.5625 -31.113281 27.65625 -28.75 C 24.84375 -21.5 22.203125 -15.832031 19.734375 -11.75 C 17.253906 -7.675781 14.660156 -4.738281 11.953125 -2.9375 C 11.054688 -2.363281 9.960938 -1.914062 8.671875 -1.59375 C 8.253906 -1.457031 7.84375 -1.359375 7.4375 -1.296875 C 6.71875 -1.179688 6.066406 -1.164062 5.484375 -1.25 Z M 5.484375 -1.25 "/></g></g><g style="fill:#ffffff;fill-opacity:1;"><g transform="translate(136.987904, 197.192849)"><path style="stroke:none" d="M 9.15625 -28.15625 C 9.039062 -27.34375 9.003906 -26.816406 9.046875 -26.578125 C 9.148438 -26.347656 9.328125 -26.222656 9.578125 -26.203125 C 10.066406 -26.160156 11.148438 -26.640625 12.828125 -27.640625 C 14.515625 -28.648438 15.988281 -29.8125 17.25 -31.125 C 18.5 -32.5 19.554688 -33.34375 20.421875 -33.65625 C 21.210938 -34.03125 21.882812 -33.894531 22.4375 -33.25 C 22.71875 -32.9375 22.878906 -32.660156 22.921875 -32.421875 C 22.960938 -32.117188 22.929688 -31.742188 22.828125 -31.296875 C 22.710938 -30.847656 22.425781 -30.34375 21.96875 -29.78125 C 21.519531 -29.144531 20.953125 -28.46875 20.265625 -27.75 C 19.003906 -26.5 17.460938 -25.242188 15.640625 -23.984375 C 13.878906 -22.773438 12.179688 -21.910156 10.546875 -21.390625 C 9.835938 -21.210938 8.769531 -20.914062 7.34375 -20.5 C 7.125 -20.039062 6.722656 -19.367188 6.140625 -18.484375 C 4.984375 -16.441406 3.828125 -15.023438 2.671875 -14.234375 C 2.003906 -13.816406 1.34375 -13.554688 0.6875 -13.453125 C 0.0820312 -13.347656 -0.535156 -13.367188 -1.171875 -13.515625 C -2.835938 -13.984375 -4.023438 -15.453125 -4.734375 -17.921875 L -4.96875 -19.359375 C -5.332031 -21.628906 -5.285156 -24.394531 -4.828125 -27.65625 C -4.679688 -28.664062 -4.519531 -29.582031 -4.34375 -30.40625 C -4.101562 -31.175781 -3.878906 -31.675781 -3.671875 -31.90625 C -3.515625 -32.050781 -3.238281 -32.425781 -2.84375 -33.03125 C -2.457031 -33.65625 -2.101562 -34.300781 -1.78125 -34.96875 C -1.40625 -35.695312 -0.988281 -36.34375 -0.53125 -36.90625 C -0.0703125 -37.476562 0.328125 -37.851562 0.671875 -38.03125 C 0.890625 -38.175781 1.113281 -38.300781 1.34375 -38.40625 C 1.570312 -38.507812 1.800781 -38.578125 2.03125 -38.609375 C 2.269531 -38.710938 2.476562 -38.78125 2.65625 -38.8125 C 4.5625 -39.125 6.191406 -38.34375 7.546875 -36.46875 C 9.046875 -34.375 9.582031 -31.601562 9.15625 -28.15625 Z M 2.203125 -29.0625 C 2.691406 -27.550781 3.15625 -26.800781 3.59375 -26.8125 C 4.019531 -26.8125 4.269531 -27.554688 4.34375 -29.046875 C 4.4375 -30.285156 4.34375 -31.375 4.0625 -32.3125 C 3.789062 -33.3125 3.445312 -33.742188 3.03125 -33.609375 C 2.625 -33.484375 2.320312 -32.890625 2.125 -31.828125 C 1.925781 -30.816406 1.953125 -29.894531 2.203125 -29.0625 Z M -0.1875 -20.046875 C -0.101562 -19.128906 0.0859375 -18.664062 0.390625 -18.65625 C 0.628906 -18.695312 1.015625 -19.15625 1.546875 -20.03125 C 1.941406 -20.644531 2.128906 -21.046875 2.109375 -21.234375 C 2.078125 -21.410156 1.835938 -21.707031 1.390625 -22.125 C 1.035156 -22.4375 0.726562 -22.664062 0.46875 -22.8125 C 0.175781 -23 -0.0195312 -23.054688 -0.125 -22.984375 C -0.300781 -22.890625 -0.375 -22.601562 -0.34375 -22.125 C -0.382812 -21.632812 -0.332031 -20.941406 -0.1875 -20.046875 Z M -0.1875 -20.046875 "/></g></g><g style="fill:#ffffff;fill-opacity:1;"><g transform="translate(161.471389, 193.239631)"><path style="stroke:none" d="M -3.78125 -6.375 C -4.988281 -7.039062 -5.773438 -8.484375 -6.140625 -10.703125 C -6.285156 -11.648438 -6.347656 -12.773438 -6.328125 -14.078125 C -6.265625 -18.253906 -5.28125 -24.910156 -3.375 -34.046875 C -2.789062 -36.910156 -2.257812 -38.75 -1.78125 -39.5625 C -1.289062 -40.375 -0.601562 -40.671875 0.28125 -40.453125 C 1.375 -40.128906 1.960938 -39.484375 2.046875 -38.515625 C 2.128906 -37.609375 1.785156 -35.222656 1.015625 -31.359375 C 0.253906 -27.742188 -0.347656 -24.457031 -0.796875 -21.5 C -1.242188 -18.539062 -1.363281 -17.015625 -1.15625 -16.921875 C -1.09375 -16.878906 -0.914062 -17.273438 -0.625 -18.109375 C -0.332031 -18.960938 0.0234375 -19.976562 0.453125 -21.15625 C 2.015625 -26.3125 3.675781 -30.84375 5.4375 -34.75 C 7.132812 -38.632812 8.878906 -41.890625 10.671875 -44.515625 C 12.546875 -47.328125 14.242188 -49.347656 15.765625 -50.578125 C 16.796875 -51.359375 17.726562 -51.847656 18.5625 -52.046875 C 19.039062 -52.117188 19.503906 -52.101562 19.953125 -52 C 21.296875 -51.65625 22.191406 -50.847656 22.640625 -49.578125 C 22.742188 -49.285156 22.828125 -48.960938 22.890625 -48.609375 C 23.066406 -47.472656 23.007812 -46.113281 22.71875 -44.53125 C 22.414062 -43.007812 22.09375 -41.972656 21.75 -41.421875 C 21.363281 -40.804688 20.835938 -40.445312 20.171875 -40.34375 C 19.160156 -40.175781 18.398438 -40.484375 17.890625 -41.265625 C 17.429688 -41.984375 17.34375 -42.953125 17.625 -44.171875 C 18.050781 -45.703125 17.742188 -45.894531 16.703125 -44.75 C 15.640625 -43.65625 14.332031 -41.695312 12.78125 -38.875 C 11.53125 -36.71875 10.3125 -34.191406 9.125 -31.296875 C 7.9375 -28.335938 6.625 -24.65625 5.1875 -20.25 C 3.757812 -15.84375 2.625 -12.625 1.78125 -10.59375 C 0.945312 -8.5625 0.175781 -7.273438 -0.53125 -6.734375 C -1.125 -6.203125 -1.628906 -5.90625 -2.046875 -5.84375 L -2.140625 -5.828125 C -2.566406 -5.816406 -3.113281 -6 -3.78125 -6.375 Z M -3.78125 -6.375 "/></g></g><g style="fill:#ffffff;fill-opacity:1;"><g transform="translate(187.210439, 189.083684)"><path style="stroke:none" d="M 4.859375 -75.34375 C 5.179688 -74.882812 5.285156 -74.039062 5.171875 -72.8125 C 5.128906 -71.625 4.707031 -68.394531 3.90625 -63.125 C 3.363281 -59.59375 2.851562 -55.851562 2.375 -51.90625 C 1.90625 -48.039062 1.539062 -44.640625 1.28125 -41.703125 C 1.101562 -40.078125 0.957031 -38.675781 0.84375 -37.5 C 0.789062 -36.320312 0.742188 -35.488281 0.703125 -35 C 0.691406 -34.625 0.710938 -34.132812 0.765625 -33.53125 L 1.609375 -35.046875 C 2.410156 -36.523438 3.671875 -38.421875 5.390625 -40.734375 C 7.171875 -42.972656 8.390625 -44.332031 9.046875 -44.8125 C 10.429688 -45.757812 11.726562 -46.125 12.9375 -45.90625 C 14.113281 -45.71875 15.023438 -45.003906 15.671875 -43.765625 C 15.953125 -43.140625 16.097656 -42.578125 16.109375 -42.078125 C 16.148438 -41.535156 16.078125 -40.664062 15.890625 -39.46875 C 15.660156 -37.519531 15.035156 -35.519531 14.015625 -33.46875 C 13.066406 -31.40625 11.515625 -28.847656 9.359375 -25.796875 C 8.367188 -24.359375 7.503906 -23.085938 6.765625 -21.984375 C 6.078125 -20.890625 5.742188 -20.28125 5.765625 -20.15625 C 5.785156 -20.050781 6.0625 -19.851562 6.59375 -19.5625 C 7.175781 -19.351562 7.832031 -19.125 8.5625 -18.875 C 9.644531 -18.488281 10.5625 -18.269531 11.3125 -18.21875 C 12.007812 -18.144531 12.832031 -18.1875 13.78125 -18.34375 C 16.238281 -18.738281 18.390625 -19.878906 20.234375 -21.765625 C 22.003906 -23.710938 24.09375 -26.929688 26.5 -31.421875 C 27.59375 -33.378906 28.238281 -34.648438 28.4375 -35.234375 C 28.664062 -35.765625 28.890625 -36.109375 29.109375 -36.265625 C 29.847656 -36.628906 30.550781 -36.648438 31.21875 -36.328125 C 31.945312 -35.953125 32.375 -35.378906 32.5 -34.609375 C 32.613281 -33.953125 31.953125 -32.1875 30.515625 -29.3125 C 29.140625 -26.445312 27.644531 -23.90625 26.03125 -21.6875 C 24.332031 -19.320312 22.71875 -17.5625 21.1875 -16.40625 C 19.664062 -15.175781 17.929688 -14.304688 15.984375 -13.796875 C 13.753906 -13.191406 11.4375 -13.128906 9.03125 -13.609375 C 6.625 -14.078125 4.515625 -14.992188 2.703125 -16.359375 L 0.921875 -17.640625 C 0.816406 -17.117188 0.671875 -16.328125 0.484375 -15.265625 C 0.160156 -13.796875 -0.0703125 -12.007812 -0.21875 -9.90625 C -0.425781 -7.84375 -0.484375 -6.515625 -0.390625 -5.921875 C -0.304688 -5.390625 -0.507812 -4.710938 -1 -3.890625 C -1.550781 -3.128906 -2.035156 -2.71875 -2.453125 -2.65625 C -2.628906 -2.625 -2.878906 -2.664062 -3.203125 -2.78125 C -3.585938 -2.914062 -3.929688 -3.113281 -4.234375 -3.375 C -4.503906 -3.5625 -4.785156 -3.820312 -5.078125 -4.15625 C -5.328125 -4.488281 -5.46875 -4.769531 -5.5 -5 C -5.550781 -5.300781 -5.550781 -5.890625 -5.5 -6.765625 C -5.53125 -7.671875 -5.53125 -8.800781 -5.5 -10.15625 C -5.40625 -12.613281 -5.253906 -15.675781 -5.046875 -19.34375 C -4.890625 -22.925781 -4.660156 -26.644531 -4.359375 -30.5 C -4.140625 -34.382812 -3.882812 -38.109375 -3.59375 -41.671875 C -3.3125 -45.203125 -3.039062 -48.066406 -2.78125 -50.265625 C -2.5625 -51.953125 -2.300781 -53.769531 -2 -55.71875 C -1.757812 -57.65625 -1.515625 -59.566406 -1.265625 -61.453125 C -0.734375 -64.972656 -0.226562 -68.09375 0.25 -70.8125 C 0.738281 -73.53125 1.050781 -75.019531 1.1875 -75.28125 C 1.34375 -75.488281 1.53125 -75.675781 1.75 -75.84375 C 1.957031 -76 2.179688 -76.09375 2.421875 -76.125 L 2.609375 -76.15625 C 2.972656 -76.21875 3.347656 -76.1875 3.734375 -76.0625 C 4.179688 -75.945312 4.554688 -75.707031 4.859375 -75.34375 Z M 3.578125 -26.25 C 3.609375 -26.070312 3.875 -26.332031 4.375 -27.03125 C 4.9375 -27.726562 5.535156 -28.585938 6.171875 -29.609375 C 7.066406 -30.921875 7.921875 -32.289062 8.734375 -33.71875 C 9.535156 -35.125 10.039062 -36.15625 10.25 -36.8125 C 10.5 -37.53125 10.671875 -38.171875 10.765625 -38.734375 C 10.921875 -39.304688 10.960938 -39.617188 10.890625 -39.671875 C 10.585938 -39.628906 10.085938 -39.117188 9.390625 -38.140625 C 8.640625 -37.109375 7.882812 -35.882812 7.125 -34.46875 C 6.164062 -32.832031 5.300781 -31.160156 4.53125 -29.453125 C 3.757812 -27.796875 3.441406 -26.726562 3.578125 -26.25 Z M 3.578125 -26.25 "/></g></g><g style="fill:#ffffff;fill-opacity:1;"><g transform="translate(220.572551, 183.696882)"><path style="stroke:none" d=""/></g></g><g style="fill:#ffffff;fill-opacity:1;"><g transform="translate(245.325087, 179.700222)"><path style="stroke:none" d="M 34.90625 -35.734375 L 35.40625 -32.59375 L 37.109375 -32.859375 C 37.523438 -32.929688 38.226562 -33.164062 39.21875 -33.5625 C 40.132812 -33.957031 41.007812 -34.40625 41.84375 -34.90625 C 44.164062 -36.144531 45.679688 -36.847656 46.390625 -37.015625 C 47.148438 -37.265625 47.789062 -37.097656 48.3125 -36.515625 C 48.53125 -36.242188 48.703125 -35.9375 48.828125 -35.59375 C 48.921875 -35.425781 48.976562 -35.28125 49 -35.15625 C 49.019531 -34.976562 49.015625 -34.789062 48.984375 -34.59375 C 48.953125 -33.675781 47.726562 -32.53125 45.3125 -31.15625 C 42.945312 -29.789062 40.359375 -28.695312 37.546875 -27.875 C 37.023438 -27.71875 36.226562 -27.523438 35.15625 -27.296875 C 35.070312 -26.734375 34.894531 -25.9375 34.625 -24.90625 C 33.957031 -21.863281 32.90625 -19.0625 31.46875 -16.5 C 29.988281 -13.925781 28.390625 -12.070312 26.671875 -10.9375 C 25.523438 -10.070312 24.207031 -9.460938 22.71875 -9.109375 C 22.320312 -8.972656 21.910156 -8.875 21.484375 -8.8125 C 20.597656 -8.664062 19.75 -8.644531 18.9375 -8.75 C 17.039062 -9.070312 15.375 -9.847656 13.9375 -11.078125 C 12.582031 -12.335938 11.269531 -14.21875 10 -16.71875 C 9.09375 -18.46875 8.523438 -19.320312 8.296875 -19.28125 C 7.992188 -19.226562 7.03125 -18.1875 5.40625 -16.15625 C 4.226562 -14.664062 3.144531 -13.570312 2.15625 -12.875 C 1.113281 -12.09375 0.113281 -11.625 -0.84375 -11.46875 C -1.800781 -11.3125 -2.6875 -11.472656 -3.5 -11.953125 C -4.3125 -12.429688 -4.957031 -13.210938 -5.4375 -14.296875 C -5.695312 -14.816406 -5.882812 -15.429688 -6 -16.140625 C -6.207031 -17.410156 -6.191406 -18.976562 -5.953125 -20.84375 C -5.609375 -23.71875 -4.785156 -27.015625 -3.484375 -30.734375 C -2.835938 -32.429688 -2.257812 -33.566406 -1.75 -34.140625 C -1.21875 -34.710938 -0.535156 -34.878906 0.296875 -34.640625 C 1.253906 -34.378906 1.773438 -33.820312 1.859375 -32.96875 C 1.921875 -32.1875 1.628906 -30.757812 0.984375 -28.6875 C -0.0546875 -25.570312 -0.75 -22.847656 -1.09375 -20.515625 C -1.445312 -18.128906 -1.347656 -16.890625 -0.796875 -16.796875 C -0.671875 -16.816406 -0.269531 -17.191406 0.40625 -17.921875 C 1.09375 -18.640625 1.847656 -19.5 2.671875 -20.5 C 4.046875 -22.25 5.21875 -23.570312 6.1875 -24.46875 C 7.082031 -25.289062 7.859375 -25.753906 8.515625 -25.859375 C 9.234375 -25.972656 9.992188 -25.628906 10.796875 -24.828125 C 11.660156 -24.046875 12.429688 -22.914062 13.109375 -21.4375 C 14.222656 -19.050781 15.066406 -17.410156 15.640625 -16.515625 C 16.285156 -15.640625 16.984375 -14.957031 17.734375 -14.46875 C 19.773438 -13.195312 21.890625 -13.410156 24.078125 -15.109375 C 26.253906 -16.804688 27.960938 -19.507812 29.203125 -23.21875 C 29.679688 -24.757812 29.929688 -25.84375 29.953125 -26.46875 C 29.992188 -27.03125 29.773438 -27.269531 29.296875 -27.1875 C 28.753906 -27.101562 27.472656 -27.445312 25.453125 -28.21875 C 23.421875 -28.925781 22.054688 -29.5625 21.359375 -30.125 C 20.148438 -31.15625 19.21875 -32.207031 18.5625 -33.28125 C 17.957031 -34.28125 17.539062 -35.492188 17.3125 -36.921875 C 16.914062 -39.378906 17.347656 -41.632812 18.609375 -43.6875 C 19.828125 -45.664062 21.546875 -46.832031 23.765625 -47.1875 C 26.328125 -47.601562 28.675781 -46.722656 30.8125 -44.546875 C 32.945312 -42.316406 34.3125 -39.378906 34.90625 -35.734375 Z M 22.828125 -41.0625 C 22.421875 -40.488281 22.160156 -40.007812 22.046875 -39.625 C 21.984375 -39.195312 22.015625 -38.59375 22.140625 -37.8125 C 22.359375 -36.5 22.835938 -35.441406 23.578125 -34.640625 C 24.316406 -33.835938 25.4375 -33.1875 26.9375 -32.6875 C 28.613281 -32.15625 29.613281 -32.046875 29.9375 -32.359375 C 30.257812 -32.597656 30.234375 -33.664062 29.859375 -35.5625 C 29.585938 -37.238281 29.148438 -38.640625 28.546875 -39.765625 C 27.867188 -40.878906 27.066406 -41.671875 26.140625 -42.140625 C 25.867188 -42.273438 25.601562 -42.382812 25.34375 -42.46875 C 25.039062 -42.476562 24.773438 -42.460938 24.546875 -42.421875 C 24.242188 -42.367188 23.953125 -42.234375 23.671875 -42.015625 C 23.410156 -41.785156 23.128906 -41.46875 22.828125 -41.0625 Z M 22.828125 -41.0625 "/></g></g><g style="fill:#ffffff;fill-opacity:1;"><g transform="translate(294.91984, 171.692421)"><path style="stroke:none" d="M -2.09375 -7.9375 C -3.875 -8.695312 -5.003906 -10.539062 -5.484375 -13.46875 C -5.554688 -13.957031 -5.617188 -14.53125 -5.671875 -15.1875 C -5.941406 -19.070312 -5.332031 -24.601562 -3.84375 -31.78125 C -3.476562 -33.363281 -3.191406 -34.445312 -2.984375 -35.03125 C -2.710938 -35.644531 -2.410156 -36.03125 -2.078125 -36.1875 C -1.628906 -36.445312 -1.15625 -36.554688 -0.65625 -36.515625 L -0.09375 -36.4375 C 0.5625 -36.175781 1.003906 -35.722656 1.234375 -35.078125 C 1.335938 -34.785156 1.328125 -34.109375 1.203125 -33.046875 C 1.066406 -31.984375 0.875 -30.695312 0.625 -29.1875 C -0.03125 -26.007812 -0.453125 -23.300781 -0.640625 -21.0625 C -0.898438 -18.863281 -0.957031 -16.957031 -0.8125 -15.34375 C -0.707031 -14.3125 -0.597656 -13.648438 -0.484375 -13.359375 C -0.378906 -13.015625 -0.207031 -12.859375 0.03125 -12.890625 C 0.40625 -12.890625 1.160156 -13.71875 2.296875 -15.375 C 3.503906 -17.03125 4.738281 -18.890625 6 -20.953125 C 6.664062 -22.097656 7.316406 -23.179688 7.953125 -24.203125 C 8.578125 -25.285156 9.128906 -26.257812 9.609375 -27.125 C 10.316406 -28.476562 10.988281 -29.664062 11.625 -30.6875 C 12.25 -31.707031 12.613281 -32.257812 12.71875 -32.34375 C 13.6875 -32.800781 14.566406 -32.664062 15.359375 -31.9375 C 15.804688 -31.507812 16.066406 -31.054688 16.140625 -30.578125 C 16.210938 -30.160156 16.1875 -29.722656 16.0625 -29.265625 C 15.851562 -28.753906 15.460938 -27.929688 14.890625 -26.796875 C 14.390625 -25.722656 13.757812 -24.519531 13 -23.1875 C 11.976562 -21.164062 10.863281 -19.140625 9.65625 -17.109375 C 8.457031 -15.078125 7.492188 -13.632812 6.765625 -12.78125 C 5.015625 -10.65625 3.40625 -9.195312 1.9375 -8.40625 C 0.476562 -7.613281 -0.863281 -7.457031 -2.09375 -7.9375 Z M -0.78125 -40.640625 C -1.40625 -41.148438 -1.707031 -41.75 -1.6875 -42.4375 C -1.613281 -43.125 -1.222656 -43.738281 -0.515625 -44.28125 C 0.128906 -44.8125 0.847656 -44.894531 1.640625 -44.53125 C 2.441406 -44.164062 2.914062 -43.535156 3.0625 -42.640625 C 3.195312 -41.742188 2.785156 -41.035156 1.828125 -40.515625 C 1.390625 -40.253906 0.953125 -40.117188 0.515625 -40.109375 C 0.078125 -40.171875 -0.351562 -40.347656 -0.78125 -40.640625 Z M -0.78125 -40.640625 "/></g></g><g style="fill:#ffffff;fill-opacity:1;"><g transform="translate(311.780263, 168.970059)"><path style="stroke:none" d="M 1.015625 -2.84375 C 0.703125 -2.84375 0.28125 -2.957031 -0.25 -3.1875 C -0.757812 -3.34375 -1.226562 -3.601562 -1.65625 -3.96875 C -2.5625 -4.625 -3.304688 -5.640625 -3.890625 -7.015625 C -4.285156 -7.929688 -4.566406 -8.921875 -4.734375 -9.984375 C -4.835938 -10.585938 -4.910156 -11.195312 -4.953125 -11.8125 C -5.003906 -12.894531 -4.960938 -14.34375 -4.828125 -16.15625 C -4.742188 -17.9375 -4.570312 -19.929688 -4.3125 -22.140625 C -3.851562 -26.128906 -3.21875 -30.519531 -2.40625 -35.3125 C -1.570312 -40.050781 -0.660156 -44.3125 0.328125 -48.09375 C 0.671875 -49.4375 0.914062 -50.582031 1.0625 -51.53125 C 1.21875 -52.46875 1.257812 -52.957031 1.1875 -53 C 1.125 -53.050781 0.828125 -53.003906 0.296875 -52.859375 C -0.222656 -52.722656 -0.863281 -52.535156 -1.625 -52.296875 C -2.332031 -52.046875 -3.125 -51.796875 -4 -51.546875 C -4.863281 -51.210938 -5.59375 -50.96875 -6.1875 -50.8125 C -7.070312 -50.613281 -7.664062 -50.519531 -7.96875 -50.53125 C -8.238281 -50.601562 -8.585938 -50.851562 -9.015625 -51.28125 C -9.390625 -51.707031 -9.597656 -52.039062 -9.640625 -52.28125 C -9.734375 -52.507812 -9.660156 -52.859375 -9.421875 -53.328125 C -9.171875 -54.035156 -8.597656 -54.644531 -7.703125 -55.15625 C -6.796875 -55.613281 -5.0625 -56.269531 -2.5 -57.125 C -1.394531 -57.46875 -0.378906 -57.8125 0.546875 -58.15625 C 1.472656 -58.488281 2.050781 -58.675781 2.28125 -58.71875 C 2.582031 -58.820312 2.910156 -59.304688 3.265625 -60.171875 C 3.609375 -61.015625 4.066406 -62.375 4.640625 -64.25 C 5.347656 -66.632812 5.835938 -68.117188 6.109375 -68.703125 C 6.390625 -69.253906 6.828125 -69.609375 7.421875 -69.765625 L 7.703125 -69.8125 C 8.296875 -69.90625 8.828125 -69.804688 9.296875 -69.515625 C 9.835938 -69.234375 10.164062 -68.726562 10.28125 -68 C 10.3125 -67.769531 10.265625 -67.304688 10.140625 -66.609375 C 9.992188 -65.972656 9.828125 -65.300781 9.640625 -64.59375 L 9.03125 -62.671875 L 8.71875 -61.21875 L 8.5625 -60.359375 L 13.6875 -61.1875 C 16.4375 -61.632812 18.195312 -61.769531 18.96875 -61.59375 C 19.78125 -61.414062 20.273438 -60.785156 20.453125 -59.703125 C 20.597656 -58.816406 20.273438 -58.15625 19.484375 -57.71875 C 18.753906 -57.289062 17.164062 -56.878906 14.71875 -56.484375 C 13.519531 -56.296875 12.328125 -56.070312 11.140625 -55.8125 C 9.953125 -55.550781 9.128906 -55.359375 8.671875 -55.234375 C 8.316406 -55.128906 7.757812 -54.945312 7 -54.6875 C 6.695312 -53.53125 6.265625 -51.835938 5.703125 -49.609375 C 5.429688 -48.648438 5.125 -47.335938 4.78125 -45.671875 C 4.425781 -44.023438 4.046875 -42.21875 3.640625 -40.25 C 2.910156 -36.632812 2.191406 -32.898438 1.484375 -29.046875 C 0.753906 -25.179688 0.300781 -22.253906 0.125 -20.265625 C 0.03125 -19.023438 -0.0195312 -17.664062 -0.03125 -16.1875 C -0.0507812 -14.78125 0.0078125 -13.441406 0.15625 -12.171875 C 0.375 -10.359375 0.523438 -9.21875 0.609375 -8.75 C 0.742188 -8.28125 1.003906 -8.015625 1.390625 -7.953125 C 2.535156 -7.710938 4.75 -9.570312 8.03125 -13.53125 C 11.257812 -17.488281 14.492188 -22.335938 17.734375 -28.078125 C 19.191406 -30.515625 20.191406 -32.113281 20.734375 -32.875 C 21.222656 -33.632812 21.707031 -34.050781 22.1875 -34.125 C 22.84375 -34.226562 23.453125 -34.085938 24.015625 -33.703125 C 24.566406 -33.296875 24.890625 -32.789062 24.984375 -32.1875 C 25.023438 -31.957031 24.863281 -31.441406 24.5 -30.640625 C 24.195312 -29.847656 23.738281 -28.890625 23.125 -27.765625 C 21.988281 -25.671875 20.539062 -23.222656 18.78125 -20.421875 C 16.96875 -17.617188 15.203125 -15.066406 13.484375 -12.765625 C 10.929688 -9.210938 8.703125 -6.707031 6.796875 -5.25 C 5.210938 -4.007812 3.613281 -3.257812 2 -3 Z M 1.015625 -2.84375 "/></g></g><g style="fill:#ffffff;fill-opacity:1;"><g transform="translate(337.519297, 164.814114)"><path style="stroke:none" d="M -4.875 -9.15625 C -5.375 -9.550781 -5.695312 -10.171875 -5.84375 -11.015625 L -5.890625 -11.375 C -6.003906 -12.46875 -5.988281 -15.050781 -5.84375 -19.125 C -5.570312 -24.6875 -5.285156 -29.765625 -4.984375 -34.359375 C -4.617188 -38.890625 -4.128906 -43.445312 -3.515625 -48.03125 C -3.179688 -50.476562 -2.816406 -52.988281 -2.421875 -55.5625 C -1.992188 -58.15625 -1.546875 -60.863281 -1.078125 -63.6875 C -0.429688 -67.289062 0.015625 -69.476562 0.265625 -70.25 C 0.492188 -71.082031 0.867188 -71.609375 1.390625 -71.828125 C 1.484375 -71.890625 1.625 -71.9375 1.8125 -71.96875 C 2.238281 -72.039062 2.707031 -71.992188 3.21875 -71.828125 C 3.9375 -71.523438 4.398438 -71.140625 4.609375 -70.671875 C 4.703125 -70.453125 4.640625 -69.5 4.421875 -67.8125 C 4.242188 -66.1875 3.945312 -64.226562 3.53125 -61.9375 C 3.132812 -59.800781 2.742188 -57.441406 2.359375 -54.859375 C 1.972656 -52.347656 1.675781 -50.40625 1.46875 -49.03125 C 1.28125 -47.507812 1.078125 -45.9375 0.859375 -44.3125 C 0.691406 -42.625 0.523438 -40.972656 0.359375 -39.359375 C 0.0546875 -36.367188 -0.164062 -33.753906 -0.3125 -31.515625 C -0.4375 -29.285156 -0.441406 -28.179688 -0.328125 -28.203125 C -0.265625 -28.210938 -0.0390625 -28.550781 0.34375 -29.21875 C 0.71875 -29.894531 1.140625 -30.707031 1.609375 -31.65625 C 3.285156 -34.925781 4.945312 -37.582031 6.59375 -39.625 C 8.28125 -41.675781 9.753906 -42.773438 11.015625 -42.921875 C 11.378906 -42.972656 11.78125 -42.945312 12.21875 -42.84375 C 12.613281 -42.644531 13.023438 -42.398438 13.453125 -42.109375 C 14.429688 -41.410156 14.988281 -40.242188 15.125 -38.609375 C 15.25 -37.035156 15.078125 -34.097656 14.609375 -29.796875 C 14.097656 -25.410156 13.816406 -22.570312 13.765625 -21.28125 C 13.734375 -19.925781 13.929688 -19.28125 14.359375 -19.34375 C 14.710938 -19.40625 15.65625 -20.410156 17.1875 -22.359375 C 18.71875 -24.328125 20.109375 -26.367188 21.359375 -28.484375 C 21.929688 -29.429688 22.484375 -30.351562 23.015625 -31.25 C 23.554688 -32.125 23.929688 -32.675781 24.140625 -32.90625 C 24.859375 -33.75 25.664062 -34.023438 26.5625 -33.734375 C 27.46875 -33.523438 28 -32.941406 28.15625 -31.984375 L 28.1875 -31.796875 C 28.238281 -31.429688 28.066406 -30.785156 27.671875 -29.859375 C 27.253906 -28.941406 26.59375 -27.703125 25.6875 -26.140625 C 23.15625 -22.054688 20.910156 -19.03125 18.953125 -17.0625 C 16.953125 -15.007812 15.238281 -13.867188 13.8125 -13.640625 C 13.144531 -13.597656 12.316406 -13.957031 11.328125 -14.71875 C 10.335938 -15.53125 9.710938 -16.375 9.453125 -17.25 C 9.109375 -18.25 8.972656 -19.851562 9.046875 -22.0625 C 9.046875 -24.28125 9.257812 -26.953125 9.6875 -30.078125 C 10.132812 -33.410156 10.316406 -35.3125 10.234375 -35.78125 C 10.160156 -36.269531 9.695312 -35.894531 8.84375 -34.65625 C 8.257812 -33.75 7.550781 -32.46875 6.71875 -30.8125 C 5.882812 -29.144531 5.035156 -27.347656 4.171875 -25.421875 C 2.910156 -22.578125 1.757812 -19.816406 0.71875 -17.140625 C -0.300781 -14.390625 -0.8125 -12.648438 -0.8125 -11.921875 C -0.875 -10.742188 -1.195312 -9.894531 -1.78125 -9.375 C -2.4375 -8.84375 -2.976562 -8.578125 -3.40625 -8.578125 C -3.53125 -8.554688 -3.753906 -8.570312 -4.078125 -8.625 C -4.335938 -8.769531 -4.601562 -8.945312 -4.875 -9.15625 Z M -4.875 -9.15625 "/></g></g><g style="fill:#ffffff;fill-opacity:1;"><g transform="translate(164.950907, 280.050837)"><path style="stroke:none" d="M 10.53125 -0.328125 C 8.25 -0.742188 6.347656 -1.691406 4.828125 -3.171875 C 3.304688 -4.578125 2.375 -6.328125 2.03125 -8.421875 C 1.707031 -10.453125 2.046875 -12.9375 3.046875 -15.875 C 4.046875 -18.84375 5.519531 -21.710938 7.46875 -24.484375 C 8.613281 -26.078125 9.460938 -27.078125 10.015625 -27.484375 C 10.628906 -27.890625 11.300781 -27.898438 12.03125 -27.515625 C 12.957031 -27.117188 13.363281 -26.515625 13.25 -25.703125 C 13.082031 -24.816406 12.28125 -23.273438 10.84375 -21.078125 C 7.59375 -15.828125 6.300781 -11.691406 6.96875 -8.671875 C 7.644531 -5.648438 10.132812 -4.488281 14.4375 -5.1875 C 16.164062 -5.46875 17.695312 -5.894531 19.03125 -6.46875 C 20.269531 -7.039062 21.882812 -8.015625 23.875 -9.390625 C 27.800781 -12.109375 31.160156 -15.4375 33.953125 -19.375 C 36.765625 -23.269531 38.660156 -27.316406 39.640625 -31.515625 C 39.929688 -32.671875 40.128906 -33.898438 40.234375 -35.203125 C 40.273438 -36.492188 40.195312 -37.921875 40 -39.484375 C 39.75 -41.410156 39.207031 -43.046875 38.375 -44.390625 C 37.550781 -45.722656 36.445312 -46.894531 35.0625 -47.90625 C 32.207031 -49.957031 28.179688 -50.5625 22.984375 -49.71875 C 17.785156 -48.882812 12.664062 -46.769531 7.625 -43.375 L 4.890625 -41.5625 L 4.046875 -36.453125 C 3.835938 -35.078125 3.472656 -32.78125 2.953125 -29.5625 C 2.484375 -26.351562 2.015625 -23.175781 1.546875 -20.03125 C 1.117188 -16.957031 0.707031 -14.191406 0.3125 -11.734375 C -0.09375 -9.273438 -0.332031 -7.890625 -0.40625 -7.578125 C -0.664062 -6.921875 -1.046875 -6.425781 -1.546875 -6.09375 C -2.046875 -5.832031 -2.59375 -5.8125 -3.1875 -6.03125 C -4.082031 -6.3125 -4.597656 -6.867188 -4.734375 -7.703125 C -4.859375 -8.484375 -4.675781 -10.390625 -4.1875 -13.421875 L -3.109375 -20.484375 C -2.640625 -23.617188 -2.207031 -26.632812 -1.8125 -29.53125 C -0.644531 -37.5 0.390625 -44.140625 1.296875 -49.453125 C 2.222656 -54.753906 2.835938 -57.640625 3.140625 -58.109375 C 3.523438 -58.722656 4.113281 -59.039062 4.90625 -59.0625 C 5.75 -59.125 6.375 -58.851562 6.78125 -58.25 C 7.050781 -57.789062 7.203125 -57.257812 7.234375 -56.65625 C 7.191406 -56.101562 7.019531 -54.878906 6.71875 -52.984375 C 6.53125 -51.847656 6.382812 -50.84375 6.28125 -49.96875 C 6.1875 -49.09375 6.175781 -48.632812 6.25 -48.59375 C 6.445312 -48.445312 7.148438 -48.832031 8.359375 -49.75 C 9.535156 -50.738281 10.703125 -51.851562 11.859375 -53.09375 C 14.171875 -55.488281 16.078125 -58.125 17.578125 -61 C 19.117188 -63.957031 19.910156 -66.441406 19.953125 -68.453125 C 19.929688 -69.378906 19.640625 -70.078125 19.078125 -70.546875 C 18.492188 -71.054688 17.785156 -71.242188 16.953125 -71.109375 C 15.390625 -70.859375 13.503906 -70 11.296875 -68.53125 C 9.035156 -67.007812 6.847656 -65.160156 4.734375 -62.984375 C 3.117188 -61.242188 1.226562 -58.914062 -0.9375 -56 C -3.039062 -53.082031 -4.753906 -50.40625 -6.078125 -47.96875 C -7.046875 -46.28125 -7.703125 -45.226562 -8.046875 -44.8125 C -8.472656 -44.300781 -8.953125 -44.003906 -9.484375 -43.921875 C -10.859375 -43.703125 -11.660156 -44.097656 -11.890625 -45.109375 L -11.90625 -45.296875 C -12.070312 -46.316406 -11.6875 -47.726562 -10.75 -49.53125 C -10.375 -50.207031 -9.859375 -51.023438 -9.203125 -51.984375 C -8.640625 -52.941406 -8.007812 -53.96875 -7.3125 -55.0625 C -5.96875 -56.976562 -4.566406 -58.914062 -3.109375 -60.875 C -1.585938 -62.832031 -0.332031 -64.351562 0.65625 -65.4375 C 4.84375 -69.925781 8.769531 -72.988281 12.4375 -74.625 C 13.695312 -75.1875 14.890625 -75.5625 16.015625 -75.75 C 18.171875 -76.09375 20.039062 -75.742188 21.625 -74.703125 C 23.601562 -73.492188 24.597656 -71.515625 24.609375 -68.765625 C 24.679688 -66.015625 23.773438 -62.703125 21.890625 -58.828125 C 21.492188 -58.160156 21.117188 -57.457031 20.765625 -56.71875 C 20.367188 -56.050781 20.066406 -55.609375 19.859375 -55.390625 L 19.328125 -54.65625 C 19.253906 -54.40625 19.222656 -54.25 19.234375 -54.1875 C 19.253906 -54.0625 19.625 -54.03125 20.34375 -54.09375 C 21.070312 -54.144531 21.972656 -54.257812 23.046875 -54.4375 C 25.023438 -54.75 26.910156 -54.863281 28.703125 -54.78125 C 30.429688 -54.757812 32.003906 -54.523438 33.421875 -54.078125 C 34.460938 -53.691406 35.664062 -53.0625 37.03125 -52.1875 C 38.46875 -51.238281 39.566406 -50.335938 40.328125 -49.484375 C 42.421875 -47.128906 43.785156 -43.972656 44.421875 -40.015625 L 44.53125 -39.390625 C 45.15625 -35.203125 44.769531 -31.125 43.375 -27.15625 C 41.800781 -22.488281 39.128906 -17.945312 35.359375 -13.53125 C 31.671875 -9.0625 27.539062 -5.597656 22.96875 -3.140625 C 21.332031 -2.203125 19.179688 -1.429688 16.515625 -0.828125 C 15.753906 -0.648438 15.039062 -0.507812 14.375 -0.40625 C 12.757812 -0.144531 11.476562 -0.117188 10.53125 -0.328125 Z M 10.53125 -0.328125 "/></g></g><g style="fill:#ffffff;fill-opacity:1;"><g transform="translate(216.429005, 271.738943)"><path style="stroke:none" d="M 9.15625 -28.15625 C 9.039062 -27.34375 9.003906 -26.816406 9.046875 -26.578125 C 9.148438 -26.347656 9.328125 -26.222656 9.578125 -26.203125 C 10.066406 -26.160156 11.148438 -26.640625 12.828125 -27.640625 C 14.515625 -28.648438 15.988281 -29.8125 17.25 -31.125 C 18.5 -32.5 19.554688 -33.34375 20.421875 -33.65625 C 21.210938 -34.03125 21.882812 -33.894531 22.4375 -33.25 C 22.71875 -32.9375 22.878906 -32.660156 22.921875 -32.421875 C 22.960938 -32.117188 22.929688 -31.742188 22.828125 -31.296875 C 22.710938 -30.847656 22.425781 -30.34375 21.96875 -29.78125 C 21.519531 -29.144531 20.953125 -28.46875 20.265625 -27.75 C 19.003906 -26.5 17.460938 -25.242188 15.640625 -23.984375 C 13.878906 -22.773438 12.179688 -21.910156 10.546875 -21.390625 C 9.835938 -21.210938 8.769531 -20.914062 7.34375 -20.5 C 7.125 -20.039062 6.722656 -19.367188 6.140625 -18.484375 C 4.984375 -16.441406 3.828125 -15.023438 2.671875 -14.234375 C 2.003906 -13.816406 1.34375 -13.554688 0.6875 -13.453125 C 0.0820312 -13.347656 -0.535156 -13.367188 -1.171875 -13.515625 C -2.835938 -13.984375 -4.023438 -15.453125 -4.734375 -17.921875 L -4.96875 -19.359375 C -5.332031 -21.628906 -5.285156 -24.394531 -4.828125 -27.65625 C -4.679688 -28.664062 -4.519531 -29.582031 -4.34375 -30.40625 C -4.101562 -31.175781 -3.878906 -31.675781 -3.671875 -31.90625 C -3.515625 -32.050781 -3.238281 -32.425781 -2.84375 -33.03125 C -2.457031 -33.65625 -2.101562 -34.300781 -1.78125 -34.96875 C -1.40625 -35.695312 -0.988281 -36.34375 -0.53125 -36.90625 C -0.0703125 -37.476562 0.328125 -37.851562 0.671875 -38.03125 C 0.890625 -38.175781 1.113281 -38.300781 1.34375 -38.40625 C 1.570312 -38.507812 1.800781 -38.578125 2.03125 -38.609375 C 2.269531 -38.710938 2.476562 -38.78125 2.65625 -38.8125 C 4.5625 -39.125 6.191406 -38.34375 7.546875 -36.46875 C 9.046875 -34.375 9.582031 -31.601562 9.15625 -28.15625 Z M 2.203125 -29.0625 C 2.691406 -27.550781 3.15625 -26.800781 3.59375 -26.8125 C 4.019531 -26.8125 4.269531 -27.554688 4.34375 -29.046875 C 4.4375 -30.285156 4.34375 -31.375 4.0625 -32.3125 C 3.789062 -33.3125 3.445312 -33.742188 3.03125 -33.609375 C 2.625 -33.484375 2.320312 -32.890625 2.125 -31.828125 C 1.925781 -30.816406 1.953125 -29.894531 2.203125 -29.0625 Z M -0.1875 -20.046875 C -0.101562 -19.128906 0.0859375 -18.664062 0.390625 -18.65625 C 0.628906 -18.695312 1.015625 -19.15625 1.546875 -20.03125 C 1.941406 -20.644531 2.128906 -21.046875 2.109375 -21.234375 C 2.078125 -21.410156 1.835938 -21.707031 1.390625 -22.125 C 1.035156 -22.4375 0.726562 -22.664062 0.46875 -22.8125 C 0.175781 -23 -0.0195312 -23.054688 -0.125 -22.984375 C -0.300781 -22.890625 -0.375 -22.601562 -0.34375 -22.125 C -0.382812 -21.632812 -0.332031 -20.941406 -0.1875 -20.046875 Z M -0.1875 -20.046875 "/></g></g><g style="fill:#ffffff;fill-opacity:1;"><g transform="translate(240.912491, 267.785725)"><path style="stroke:none" d="M 17.234375 -62.515625 C 17.835938 -58.796875 17.0625 -53.910156 14.90625 -47.859375 C 12.8125 -41.828125 9.851562 -36.039062 6.03125 -30.5 C 5.125 -29.207031 4.1875 -27.988281 3.21875 -26.84375 C 2.300781 -25.644531 1.648438 -24.894531 1.265625 -24.59375 C 0.410156 -23.84375 -0.0703125 -23.054688 -0.1875 -22.234375 C -0.289062 -21.429688 -0.128906 -19.679688 0.296875 -16.984375 C 0.609375 -15.078125 1.03125 -13.609375 1.5625 -12.578125 C 2.144531 -11.628906 2.800781 -11.15625 3.53125 -11.15625 C 5.25 -11.1875 7.601562 -12.941406 10.59375 -16.421875 C 13.601562 -19.859375 16.175781 -24.082031 18.3125 -29.09375 C 18.925781 -30.539062 19.441406 -31.546875 19.859375 -32.109375 C 20.265625 -32.585938 20.765625 -32.878906 21.359375 -32.984375 C 21.960938 -33.078125 22.507812 -32.925781 23 -32.53125 C 23.425781 -32.15625 23.695312 -31.640625 23.8125 -30.984375 C 23.925781 -30.265625 23.378906 -28.707031 22.171875 -26.3125 C 20.953125 -23.96875 19.566406 -21.535156 18.015625 -19.015625 C 17.109375 -17.703125 16.234375 -16.457031 15.390625 -15.28125 C 14.546875 -14.039062 13.757812 -13.023438 13.03125 -12.234375 C 10.914062 -9.734375 8.742188 -8 6.515625 -7.03125 C 5.703125 -6.65625 4.910156 -6.40625 4.140625 -6.28125 C 2.878906 -6.082031 1.75 -6.238281 0.75 -6.75 C -1.957031 -7.976562 -3.710938 -11.253906 -4.515625 -16.578125 C -5.390625 -21.953125 -5.160156 -28.304688 -3.828125 -35.640625 C -3.609375 -36.597656 -3.359375 -37.742188 -3.078125 -39.078125 C -2.734375 -40.367188 -2.375 -41.742188 -2 -43.203125 C -1.207031 -45.910156 -0.390625 -48.625 0.453125 -51.34375 C 1.359375 -54.050781 2.175781 -56.175781 2.90625 -57.71875 C 4.21875 -60.675781 5.640625 -63.109375 7.171875 -65.015625 C 8.765625 -66.929688 10.160156 -67.984375 11.359375 -68.171875 C 12.910156 -68.421875 14.1875 -68.082031 15.1875 -67.15625 C 16.207031 -66.207031 16.890625 -64.660156 17.234375 -62.515625 Z M 7.203125 -55.640625 C 6.691406 -54.328125 6.078125 -52.664062 5.359375 -50.65625 C 4.640625 -48.582031 3.96875 -46.484375 3.34375 -44.359375 C 2.382812 -41.054688 1.632812 -38.082031 1.09375 -35.4375 C 0.476562 -32.757812 0.347656 -31.445312 0.703125 -31.5 C 0.828125 -31.519531 1.113281 -31.875 1.5625 -32.5625 C 2.0625 -33.1875 2.609375 -33.945312 3.203125 -34.84375 C 5.378906 -38.144531 7.328125 -41.863281 9.046875 -46 C 10.773438 -50.144531 11.851562 -53.726562 12.28125 -56.75 C 12.488281 -58.0625 12.539062 -59.441406 12.4375 -60.890625 C 12.320312 -62.421875 12.113281 -63.164062 11.8125 -63.125 C 11.519531 -63.070312 10.851562 -62.21875 9.8125 -60.5625 C 8.84375 -59 7.972656 -57.359375 7.203125 -55.640625 Z M 7.203125 -55.640625 "/></g></g><g style="fill:#ffffff;fill-opacity:1;"><g transform="translate(264.857878, 263.919391)"><path style="stroke:none" d="M 14.484375 -39.703125 C 15.453125 -39.359375 15.945312 -38.734375 15.96875 -37.828125 C 16.050781 -36.992188 15.828125 -34.8125 15.296875 -31.28125 C 14.753906 -28.113281 14.347656 -25.285156 14.078125 -22.796875 C 13.867188 -20.242188 13.84375 -18.492188 14 -17.546875 C 14.21875 -16.222656 15.117188 -16.734375 16.703125 -19.078125 C 18.285156 -21.421875 20.457031 -25.457031 23.21875 -31.1875 C 23.90625 -32.570312 24.382812 -33.410156 24.65625 -33.703125 C 24.90625 -33.992188 25.394531 -34.171875 26.125 -34.234375 C 26.863281 -34.285156 27.507812 -34.078125 28.0625 -33.609375 C 28.4375 -33.296875 28.65625 -32.929688 28.71875 -32.515625 C 28.75 -32.335938 28.75 -32.15625 28.71875 -31.96875 C 28.695312 -31.65625 28.300781 -30.664062 27.53125 -29 C 26.75 -27.351562 25.863281 -25.617188 24.875 -23.796875 C 24.21875 -22.523438 23.578125 -21.351562 22.953125 -20.28125 C 22.347656 -19.132812 21.816406 -18.222656 21.359375 -17.546875 C 19.597656 -14.796875 17.9375 -12.921875 16.375 -11.921875 C 15.71875 -11.453125 15.09375 -11.171875 14.5 -11.078125 C 13.664062 -10.941406 12.847656 -11.085938 12.046875 -11.515625 C 11.765625 -11.710938 11.4375 -12 11.0625 -12.375 C 10.695312 -12.800781 10.421875 -13.179688 10.234375 -13.515625 C 9.796875 -14.367188 9.472656 -15.820312 9.265625 -17.875 C 9.117188 -19.875 9.125 -21.898438 9.28125 -23.953125 C 9.40625 -24.765625 9.476562 -25.476562 9.5 -26.09375 C 9.519531 -26.71875 9.523438 -27.054688 9.515625 -27.109375 C 9.453125 -27.097656 9.210938 -26.882812 8.796875 -26.46875 C 8.367188 -26.019531 7.90625 -25.476562 7.40625 -24.84375 C 5.65625 -22.71875 3.984375 -21.070312 2.390625 -19.90625 C 0.878906 -18.675781 -0.445312 -17.96875 -1.59375 -17.78125 C -1.894531 -17.726562 -2.265625 -17.789062 -2.703125 -17.96875 C -3.171875 -18.132812 -3.648438 -18.394531 -4.140625 -18.75 C -4.898438 -19.300781 -5.363281 -19.75 -5.53125 -20.09375 C -5.625 -20.257812 -5.695312 -20.488281 -5.75 -20.78125 C -5.789062 -21.082031 -5.820312 -21.476562 -5.84375 -21.96875 C -5.9375 -23.3125 -5.632812 -24.863281 -4.9375 -26.625 C -4.300781 -28.382812 -3.40625 -30.0625 -2.25 -31.65625 C -0.613281 -34.007812 1.109375 -35.671875 2.921875 -36.640625 C 4.660156 -37.660156 6.472656 -38.019531 8.359375 -37.71875 C 9.234375 -37.539062 9.796875 -37.5 10.046875 -37.59375 C 10.285156 -37.632812 10.628906 -37.9375 11.078125 -38.5 C 11.441406 -38.9375 11.796875 -39.238281 12.140625 -39.40625 C 12.472656 -39.65625 12.785156 -39.804688 13.078125 -39.859375 C 13.316406 -39.890625 13.5625 -39.894531 13.8125 -39.875 C 14 -39.84375 14.222656 -39.785156 14.484375 -39.703125 Z M 6.015625 -32.8125 C 5.160156 -32.4375 4.410156 -31.976562 3.765625 -31.4375 C 3.179688 -30.851562 2.488281 -30.003906 1.6875 -28.890625 C 0.832031 -27.648438 0.203125 -26.628906 -0.203125 -25.828125 C -0.566406 -25.035156 -0.71875 -24.429688 -0.65625 -24.015625 C -0.59375 -23.660156 -0.132812 -23.878906 0.71875 -24.671875 C 1.5625 -25.484375 2.804688 -26.882812 4.453125 -28.875 C 5.734375 -30.4375 6.535156 -31.546875 6.859375 -32.203125 C 7.179688 -32.867188 7.070312 -33.132812 6.53125 -33 L 6.28125 -32.953125 C 6.21875 -32.941406 6.128906 -32.894531 6.015625 -32.8125 Z M 6.015625 -32.8125 "/></g></g><path style="fill:none;stroke-width:4;stroke-linecap:butt;stroke-linejoin:miter;stroke:#ffffff;stroke-opacity:1;stroke-miterlimit:4;" d="M 0.00140322 2.001422 L 375.949345 2.001422 " transform="matrix(0.75,0,0,0.75,32.248948,47.75284)"/><path style="fill:none;stroke-width:4;stroke-linecap:butt;stroke-linejoin:miter;stroke:#ffffff;stroke-opacity:1;stroke-miterlimit:4;" d="M 0.00145802 2.001758 L 365.491078 2.001758 " transform="matrix(0,-0.749006,0.749006,0,32.246765,323.36828)"/><path style="fill:none;stroke-width:4;stroke-linecap:butt;stroke-linejoin:miter;stroke:#ffffff;stroke-opacity:1;stroke-miterlimit:4;" d="M -0.00142175 1.999414 L 41.451873 1.999414 " transform="matrix(-0.742081,-0.00000000129518,0.00000000129518,-0.742081,63.32707,323.370447)"/><path style="fill:none;stroke-width:4;stroke-linecap:butt;stroke-linejoin:miter;stroke:#ffffff;stroke-opacity:1;stroke-miterlimit:4;" d="M 0.00196679 1.999414 L 41.449998 1.999414 " transform="matrix(-0.742081,-0.00000000129518,0.00000000129518,-0.742081,314.200678,321.870447)"/><path style="fill:none;stroke-width:4;stroke-linecap:butt;stroke-linejoin:miter;stroke:#ffffff;stroke-opacity:1;stroke-miterlimit:4;" d="M -0.00235734 2.002097 L 41.450938 2.002097 " transform="matrix(0.00000000129518,-0.742081,0.742081,0.00000000129518,311.205687,320.365438)"/><path style="fill:none;stroke-width:4;stroke-linecap:butt;stroke-linejoin:miter;stroke:#ffffff;stroke-opacity:1;stroke-miterlimit:4;" d="M 0.0000695708 2.002097 L 41.453364 2.002097 " transform="matrix(0.00000000129518,-0.742081,0.742081,0.00000000129518,311.205687,80.335989)"/></g></svg>